<mxfile host="app.diagrams.net" modified="2024-01-26T00:21:40.318Z" agent="Mozilla/5.0 (Windows NT 10.0; Win64; x64) AppleWebKit/537.36 (KHTML, like Gecko) Chrome/120.0.0.0 Safari/537.36" etag="bVAj3KfnVqV9gyjmGlc2" version="23.0.2" type="device">
  <diagram name="Seite-1" id="O_4wCDEqzk9bSWWXkRYb">
    <mxGraphModel dx="1434" dy="760" grid="1" gridSize="10" guides="1" tooltips="1" connect="1" arrows="1" fold="1" page="1" pageScale="1" pageWidth="1169" pageHeight="827" math="0" shadow="0">
      <root>
        <mxCell id="0" />
        <mxCell id="1" parent="0" />
        <mxCell id="-IkLgn5HMeo53yESfvB--1" value="&lt;font style=&quot;font-size: 16px;&quot;&gt;API-Module&lt;/font&gt;" style="rounded=1;whiteSpace=wrap;html=1;fillColor=#dae8fc;strokeColor=#6c8ebf;" vertex="1" parent="1">
          <mxGeometry x="480" y="210" width="120" height="60" as="geometry" />
        </mxCell>
        <mxCell id="-IkLgn5HMeo53yESfvB--20" style="edgeStyle=orthogonalEdgeStyle;rounded=0;orthogonalLoop=1;jettySize=auto;html=1;entryX=0.5;entryY=0;entryDx=0;entryDy=0;" edge="1" parent="1" source="-IkLgn5HMeo53yESfvB--10" target="-IkLgn5HMeo53yESfvB--14">
          <mxGeometry relative="1" as="geometry" />
        </mxCell>
        <mxCell id="-IkLgn5HMeo53yESfvB--10" value="&lt;font style=&quot;font-size: 16px;&quot;&gt;api.cpp&lt;/font&gt;" style="shape=note;whiteSpace=wrap;html=1;backgroundOutline=1;darkOpacity=0.05;fillColor=#cce5ff;strokeColor=#36393d;" vertex="1" parent="1">
          <mxGeometry x="420" y="340" width="80" height="100" as="geometry" />
        </mxCell>
        <mxCell id="-IkLgn5HMeo53yESfvB--21" style="edgeStyle=orthogonalEdgeStyle;rounded=0;orthogonalLoop=1;jettySize=auto;html=1;entryX=0.5;entryY=0;entryDx=0;entryDy=0;" edge="1" parent="1" source="-IkLgn5HMeo53yESfvB--11" target="-IkLgn5HMeo53yESfvB--14">
          <mxGeometry relative="1" as="geometry" />
        </mxCell>
        <mxCell id="-IkLgn5HMeo53yESfvB--11" value="&lt;font style=&quot;font-size: 16px;&quot;&gt;api.h&lt;/font&gt;" style="shape=note;whiteSpace=wrap;html=1;backgroundOutline=1;darkOpacity=0.05;fillColor=#cce5ff;strokeColor=#36393d;" vertex="1" parent="1">
          <mxGeometry x="600" y="340" width="80" height="100" as="geometry" />
        </mxCell>
        <mxCell id="-IkLgn5HMeo53yESfvB--12" style="edgeStyle=orthogonalEdgeStyle;rounded=0;orthogonalLoop=1;jettySize=auto;html=1;entryX=0.425;entryY=-0.02;entryDx=0;entryDy=0;entryPerimeter=0;" edge="1" parent="1" source="-IkLgn5HMeo53yESfvB--1" target="-IkLgn5HMeo53yESfvB--10">
          <mxGeometry relative="1" as="geometry" />
        </mxCell>
        <mxCell id="-IkLgn5HMeo53yESfvB--13" style="edgeStyle=orthogonalEdgeStyle;rounded=0;orthogonalLoop=1;jettySize=auto;html=1;entryX=0;entryY=0;entryDx=25;entryDy=0;entryPerimeter=0;" edge="1" parent="1" source="-IkLgn5HMeo53yESfvB--1" target="-IkLgn5HMeo53yESfvB--11">
          <mxGeometry relative="1" as="geometry" />
        </mxCell>
        <mxCell id="-IkLgn5HMeo53yESfvB--14" value="Functions" style="swimlane;fontStyle=0;childLayout=stackLayout;horizontal=1;startSize=30;horizontalStack=0;resizeParent=1;resizeParentMax=0;resizeLast=0;collapsible=1;marginBottom=0;whiteSpace=wrap;html=1;fillColor=#cce5ff;strokeColor=#36393d;" vertex="1" parent="1">
          <mxGeometry x="450" y="510" width="200" height="80" as="geometry" />
        </mxCell>
        <mxCell id="-IkLgn5HMeo53yESfvB--15" value="&lt;font style=&quot;font-size: 16px;&quot;&gt;getSatellitePosition(...)&amp;nbsp;&lt;/font&gt;" style="text;strokeColor=#36393d;fillColor=#cce5ff;align=left;verticalAlign=middle;spacingLeft=4;spacingRight=4;overflow=hidden;points=[[0,0.5],[1,0.5]];portConstraint=eastwest;rotatable=0;whiteSpace=wrap;html=1;" vertex="1" parent="-IkLgn5HMeo53yESfvB--14">
          <mxGeometry y="30" width="200" height="50" as="geometry" />
        </mxCell>
      </root>
    </mxGraphModel>
  </diagram>
</mxfile>
